<svg xmlns="http://www.w3.org/2000/svg" viewBox="0 0 102.99 145.26"><defs><style>.cls-1{fill:#2e3091;}.cls-2{fill:#96f;}</style></defs><g id="Layer_2" data-name="Layer 2"><g id="Layer_1-2" data-name="Layer 1"><path class="cls-1" d="M.24.47V37.39H5.81V23.48H8.54a8.33,8.33,0,0,0,6.17-2.59,8.59,8.59,0,0,0,2.55-6.25V9.28A8.94,8.94,0,0,0,15,3,8.51,8.51,0,0,0,8.54.47ZM11.86,14.76A3.11,3.11,0,0,1,10.93,17,3,3,0,0,1,8.68,18H5.81V6.16H8.68A3.09,3.09,0,0,1,11,7a3.19,3.19,0,0,1,.87,2.33ZM22.52,2.58a8.49,8.49,0,0,0-2.6,6.26V29a8.57,8.57,0,0,0,2.57,6.25,8.45,8.45,0,0,0,6.25,2.59A8.83,8.83,0,0,0,37.58,29V8.84A8.55,8.55,0,0,0,35,2.59,8.82,8.82,0,0,0,28.61,0a8.23,8.23,0,0,0-6.09,2.58m9.25,26.35a3.18,3.18,0,0,1-3.18,3.19,3.11,3.11,0,0,1-2.27-.93,3,3,0,0,1-.94-2.26V8.72a3,3,0,0,1,.94-2.25,3.11,3.11,0,0,1,2.27-.93,3.18,3.18,0,0,1,3.18,3.18Zm23,2.92H45.87V.47H40.3V37.39H54.75ZM62.08.47H56.51V37.39h5.57ZM79.87,35.3a8.45,8.45,0,0,0,2.59-6.25V23.89H76.69V29a3.05,3.05,0,0,1-1,2.26,3.11,3.11,0,0,1-2.27.93A3.18,3.18,0,0,1,70.29,29V8.78a3.13,3.13,0,0,1,.93-2.27,3,3,0,0,1,2.25-.94,3.08,3.08,0,0,1,2.27.94,3.11,3.11,0,0,1,1,2.27v4.33h5.77V8.9A8.56,8.56,0,0,0,79.9,2.65,8.77,8.77,0,0,0,73.53.06,8.27,8.27,0,0,0,67.4,2.64,8.52,8.52,0,0,0,64.81,8.9V29.05A8.84,8.84,0,0,0,79.87,35.3m9.82,2.09h5.57V21.92L103,.44h-6.4L92.49,13.7,88.37.44H82.24l7.45,21.48Z"></path><path class="cls-2" d="M.09,40.3V76.35H5.53V62.77h3a8.14,8.14,0,0,0,6-2.53,8.39,8.39,0,0,0,2.49-6.1V48.91a8.66,8.66,0,0,0-2.19-6.1A8.24,8.24,0,0,0,8.54,40.3Zm11.7,14a3,3,0,0,1-.91,2.21,2.93,2.93,0,0,1-2.2.92H5.53V45.85H8.68a3,3,0,0,1,2.26.87A3.07,3.07,0,0,1,11.79,49Zm10.4-11.9a8.33,8.33,0,0,0-2.53,6.11V68.15a8.37,8.37,0,0,0,2.51,6.1,8.24,8.24,0,0,0,6.1,2.53,8.6,8.6,0,0,0,8.63-8.63V48.47a8.62,8.62,0,0,0-8.63-8.63,8.34,8.34,0,0,0-6.08,2.52m9,25.74a3.09,3.09,0,0,1-3.11,3.1,3,3,0,0,1-2.21-.9A3,3,0,0,1,25,68.1V48.36a3,3,0,0,1,.92-2.2,3,3,0,0,1,2.21-.91,3.11,3.11,0,0,1,3.11,3.11ZM57.1,59.59,54.26,40.3h-5.7L45.94,59.61,43.09,40.3H37.4l6,36.05h5.2l2.9-19.83,3.1,19.83h5.18l5.64-36H59.74ZM82.38,76.35V70.89H72.94V61.05H79.8V55.58H72.94V45.74H82.5V40.27h-15V76.35Zm2.24-36V76.35h5.44V62.77h3l3.3,13.58h5.88l-4-15.74a8.41,8.41,0,0,0,2.91-6.47V48.91a9.12,9.12,0,0,0-1.87-6.1c-1.42-1.68-3.65-2.51-6.68-2.51Zm11.22,14a3,3,0,0,1-.9,2.21,3,3,0,0,1-2.2.92H90.06V45.85h2.68q3.11,0,3.1,3.14ZM11.63,100.93v15.43h5.49V79.94H11.63V95.4H5.49V79.94H0v36.42H5.49V100.93ZM22.76,82A8.37,8.37,0,0,0,20.2,88.2v19.87a8.45,8.45,0,0,0,2.53,6.16,8.33,8.33,0,0,0,6.16,2.56,8.71,8.71,0,0,0,8.72-8.72V88.2a8.71,8.71,0,0,0-8.72-8.72A8.36,8.36,0,0,0,22.76,82m9.13,26a3.14,3.14,0,0,1-3.14,3.14,3.09,3.09,0,0,1-2.24-.92,3,3,0,0,1-.93-2.22V88.08a3,3,0,0,1,.93-2.22,3.09,3.09,0,0,1,2.24-.92,3.14,3.14,0,0,1,3.14,3.14Zm24.34,6.25a8.31,8.31,0,0,0,2.55-6.17V79.94H53.06v28.11a3.12,3.12,0,0,1-3.14,3.13,3.65,3.65,0,0,1-2.48-.91,3,3,0,0,1-.93-2.22V79.94H41.13V108.1a8.31,8.31,0,0,0,2.53,6.13,9.53,9.53,0,0,0,6.65,2.54,8,8,0,0,0,5.92-2.5m22.6-10.47a19,19,0,0,0-.84-1.71,18.75,18.75,0,0,0-3.14-4c-.41-.43-1.25-1.17-2.53-2.24a17.54,17.54,0,0,1-2.44-2.33,8,8,0,0,1-2.15-5.08,5.14,5.14,0,0,1,.64-2.68,2.49,2.49,0,0,1,2.29-1.33,2.68,2.68,0,0,1,2.18.9,6.26,6.26,0,0,1,1.28,3.49l5.26-1a10.61,10.61,0,0,0-1.21-4.22,7.47,7.47,0,0,0-2.63-2.85A11.09,11.09,0,0,0,70,79.48,6.92,6.92,0,0,0,65.4,81q-3.35,2.57-3.34,7.53a11,11,0,0,0,1.22,5.12,20.33,20.33,0,0,0,3.87,4.74L72,103a6.71,6.71,0,0,1,2.06,4.51,4.39,4.39,0,0,1-.55,2.41,3.43,3.43,0,0,1-2.88,1.78,2.83,2.83,0,0,1-2.27-1,7.92,7.92,0,0,1-1.68-4.61l-5.42.82a11.92,11.92,0,0,0,1.4,4.71,8.91,8.91,0,0,0,2.8,3.57,8.67,8.67,0,0,0,5.35,1.59,10.35,10.35,0,0,0,3-.4,7.23,7.23,0,0,0,3.78-2.59,10.26,10.26,0,0,0,2-6.51,10.06,10.06,0,0,0-.81-3.49m19.38,12.56v-5.53H87.82V100.9h7.53V95.37H87.82V85.44H98V79.91H82.33v36.45Z"></path><polygon class="cls-2" points="85 122.82 65.87 133.42 59.61 122.93 40.4 133.59 34.14 122.82 7.97 137.4 12.05 145.01 31.51 134.28 37.36 145.26 56.82 134.28 63.08 145.26 89.18 130.54 85 122.82"></polygon></g></g></svg>